<svg xmlns="http://www.w3.org/2000/svg" xmlns:xlink="http://www.w3.org/1999/xlink" version="1.2" baseProfile="tiny" x="0px" y="0px" viewBox="0 0 100 125" xml:space="preserve"><path d="M10.732,74.268l15,15c0.977,0.977,2.559,0.977,3.535,0L50,68.536l20.732,20.732C71.221,89.756,71.86,90,72.5,90   s1.279-0.244,1.768-0.732l15-15c0.977-0.976,0.977-2.559,0-3.535L68.535,50l20.732-20.732c0.977-0.976,0.977-2.559,0-3.535l-15-15   c-0.977-0.977-2.559-0.977-3.535,0L50,31.464L29.268,10.732c-0.977-0.977-2.559-0.977-3.535,0l-15,15   c-0.977,0.976-0.977,2.559,0,3.535L31.465,50L10.732,70.732C9.756,71.708,9.756,73.292,10.732,74.268z M36.768,51.768   c0.977-0.976,0.977-2.559,0-3.535L16.035,27.5L27.5,16.036l20.732,20.732c0.977,0.977,2.559,0.977,3.535,0L72.5,16.036L83.965,27.5   L63.232,48.232c-0.977,0.976-0.977,2.559,0,3.535L83.965,72.5L72.5,83.964L51.768,63.232C51.279,62.744,50.64,62.5,50,62.5   s-1.279,0.244-1.768,0.732L27.5,83.964L16.035,72.5L36.768,51.768z"/></svg>
