<svg xmlns="http://www.w3.org/2000/svg" xmlns:xlink="http://www.w3.org/1999/xlink" version="1.2" baseProfile="tiny" x="0px" y="0px" viewBox="0 0 100 125" xml:space="preserve"><path d="M92.5,35h-10v-7.5c0-1.381-1.119-2.5-2.5-2.5H51.035l-9.268-9.268C41.299,15.264,40.663,15,40,15H10   c-1.381,0-2.5,1.119-2.5,2.5v65c0,1.346,1.151,2.5,2.5,2.5h70c1.102,0,2.115-0.772,2.409-1.831l12.5-45   c0.209-0.753,0.054-1.56-0.419-2.182S93.281,35,92.5,35z M12.5,20h26.465l9.268,9.268C48.701,29.736,49.337,30,50,30h27.5v5h-55   c-1.123,0-2.108,0.749-2.409,1.831L12.5,64.158V20z M78.1,80h-0.6H13.289L24.4,40h64.811L78.1,80z"/></svg>
