<svg xmlns="http://www.w3.org/2000/svg" xmlns:xlink="http://www.w3.org/1999/xlink" version="1.2" baseProfile="tiny" x="0px" y="0px" viewBox="0 0 100 125" xml:space="preserve"><path d="M92.5,30c0-0.947-0.535-1.813-1.382-2.236l-40-20c-0.704-0.353-1.532-0.353-2.236,0l-40,20C8.035,28.188,7.5,29.053,7.5,30   s0.535,1.813,1.382,2.236L24.41,40L8.882,47.764C8.035,48.188,7.5,49.053,7.5,50s0.535,1.813,1.382,2.236L24.41,60L8.882,67.764   C8.035,68.188,7.5,69.053,7.5,70s0.535,1.813,1.382,2.236l40,20C49.234,92.412,49.617,92.5,50,92.5s0.766-0.088,1.118-0.264l40-20   C91.965,71.813,92.5,70.947,92.5,70s-0.535-1.813-1.382-2.236L75.59,60l15.528-7.764C91.965,51.813,92.5,50.947,92.5,50   s-0.535-1.813-1.382-2.236L75.59,40l15.528-7.764C91.965,31.813,92.5,30.947,92.5,30z M84.41,70L50,87.205L15.59,70L30,62.795   l18.882,9.441C49.234,72.412,49.617,72.5,50,72.5s0.766-0.088,1.118-0.264L70,62.795L84.41,70z M84.41,50L50,67.205L15.59,50   L30,42.795l18.882,9.441C49.234,52.412,49.617,52.5,50,52.5s0.766-0.088,1.118-0.264L70,42.795L84.41,50z M50,47.205L15.59,30   L50,12.795L84.41,30L50,47.205z"/></svg>
