<svg xmlns="http://www.w3.org/2000/svg" xmlns:xlink="http://www.w3.org/1999/xlink" version="1.2" baseProfile="tiny" x="0px" y="0px" viewBox="0 0 100 125" xml:space="preserve"><g><path d="M92.5,37.5h-30v-30C62.5,6.119,61.381,5,60,5H40c-1.381,0-2.5,1.119-2.5,2.5v30.002L7.498,37.526   C6.118,37.527,5,38.646,5,40.026V60c0,1.381,1.119,2.5,2.5,2.5h30v30c0,1.381,1.119,2.5,2.5,2.5h20c1.381,0,2.5-1.119,2.5-2.5v-30   h30c1.381,0,2.5-1.119,2.5-2.5V40C95,38.619,93.881,37.5,92.5,37.5z M90,57.5H60c-1.381,0-2.5,1.119-2.5,2.5v30h-15V60   c0-1.381-1.119-2.5-2.5-2.5H10V42.524L40.002,42.5c1.38-0.001,2.498-1.12,2.498-2.5V10h15v30c0,1.381,1.119,2.5,2.5,2.5h30V57.5z"/></g></svg>
