<svg xmlns="http://www.w3.org/2000/svg" xmlns:xlink="http://www.w3.org/1999/xlink" version="1.2" baseProfile="tiny" x="0px" y="0px" viewBox="0 0 100 125" xml:space="preserve"><path d="M79.268,5.732c-0.977-0.977-2.559-0.977-3.535,0l-70,70c-0.977,0.977-0.977,2.559,0,3.535l15,15   C21.221,94.756,21.86,95,22.5,95s1.279-0.244,1.768-0.732l70-70c0.977-0.977,0.977-2.559,0-3.535L79.268,5.732z M76.25,35.215   l-3.232-3.232c-0.977-0.977-2.559-0.977-3.535,0s-0.977,2.559,0,3.535l3.232,3.232L70,41.465l-3.232-3.232   c-0.977-0.977-2.559-0.977-3.535,0s-0.977,2.559,0,3.535L66.465,45l-2.715,2.715l-3.232-3.232c-0.977-0.977-2.559-0.977-3.535,0   s-0.977,2.559,0,3.535l3.232,3.232L57.5,53.965l-3.232-3.232c-0.977-0.977-2.559-0.977-3.535,0s-0.977,2.559,0,3.535l3.232,3.232   l-2.715,2.715l-3.232-3.232c-0.977-0.977-2.559-0.977-3.535,0s-0.977,2.559,0,3.535l3.232,3.232L45,66.465l-3.232-3.232   c-0.977-0.977-2.559-0.977-3.535,0s-0.977,2.559,0,3.535L41.465,70l-2.715,2.715l-3.232-3.232c-0.977-0.977-2.559-0.977-3.535,0   s-0.977,2.559,0,3.535l3.232,3.232L32.5,78.965l-3.232-3.232c-0.977-0.977-2.559-0.977-3.535,0s-0.977,2.559,0,3.535l3.232,3.232   L22.5,88.965L11.035,77.5L77.5,11.035L88.965,22.5L76.25,35.215z"/><path d="M72.5,22.5c0,2.757,2.243,5,5,5s5-2.243,5-5s-2.243-5-5-5S72.5,19.743,72.5,22.5z"/></svg>
