<svg xmlns="http://www.w3.org/2000/svg" xmlns:xlink="http://www.w3.org/1999/xlink" version="1.2" baseProfile="tiny" x="0px" y="0px" viewBox="0 0 100 125" xml:space="preserve"><path d="M94.268,9.268c0.977-0.977,0.977-2.559,0-3.535s-2.559-0.977-3.535,0L76.465,20H25V7.5C25,6.119,23.881,5,22.5,5   S20,6.119,20,7.5V20H7.5C6.119,20,5,21.119,5,22.5S6.119,25,7.5,25H20v52.5c0,0.164,0.017,0.328,0.049,0.489   c0.015,0.076,0.043,0.146,0.065,0.219c0.024,0.083,0.043,0.167,0.077,0.247c0.036,0.088,0.086,0.168,0.132,0.25   c0.033,0.06,0.059,0.122,0.098,0.18c0.183,0.275,0.419,0.511,0.694,0.694c0.057,0.038,0.12,0.064,0.18,0.098   c0.082,0.046,0.162,0.095,0.25,0.132c0.08,0.033,0.164,0.052,0.247,0.077c0.073,0.022,0.143,0.05,0.219,0.065   C22.172,79.983,22.336,80,22.5,80H75v12.5c0,1.381,1.119,2.5,2.5,2.5s2.5-1.119,2.5-2.5V80h12.5c1.381,0,2.5-1.119,2.5-2.5   S93.881,75,92.5,75H80V23.535L94.268,9.268z M25,25h46.465L25,71.465V25z M75,75H28.535L75,28.535V75z"/></svg>
