<svg xmlns="http://www.w3.org/2000/svg" xmlns:xlink="http://www.w3.org/1999/xlink" version="1.2" baseProfile="tiny" x="0px" y="0px" viewBox="0 0 100 125" xml:space="preserve"><path d="M70.154,59.548C73.223,54.588,75,48.749,75,42.5C75,24.58,60.42,10,42.5,10S10,24.58,10,42.5S24.58,75,42.5,75   c6.249,0,12.088-1.777,17.048-4.846l17.649,17.649C78.614,89.22,80.497,90,82.5,90s3.886-0.78,5.303-2.197   c2.924-2.924,2.924-7.682,0-10.606L70.154,59.548z M42.5,70C27.336,70,15,57.664,15,42.5S27.336,15,42.5,15S70,27.336,70,42.5   S57.664,70,42.5,70z M84.269,84.268c-0.945,0.944-2.592,0.944-3.537,0L63.628,67.164c1.267-1.087,2.449-2.269,3.536-3.536   l17.104,17.104C85.243,81.707,85.243,83.293,84.269,84.268z"/><path d="M42.5,20C30.093,20,20,30.093,20,42.5c0,1.381,1.119,2.5,2.5,2.5s2.5-1.119,2.5-2.5C25,32.851,32.851,25,42.5,25   c1.381,0,2.5-1.119,2.5-2.5S43.881,20,42.5,20z"/></svg>
